<svg xmlns="http://www.w3.org/2000/svg" width="143" height="59" fill="none" viewBox="0 0 143 59">
  <g clip-path="url(#a)">
    <path fill="#131118" d="M0 7.898V23.61l9.396-7.224L0 7.897Zm0 42.24 9.396-8.487L0 34.432v15.706Zm17.62-23.273L41.26 7.897H27.48L0 29.022l17.62-2.157ZM0 29.022 27.48 50.14h13.78L17.62 31.168 0 29.022ZM48.641 9.72h4.646v38.26h-4.646V9.72Zm19.678 0h5.739L57.496 27.647 74.878 47.98h-5.74L51.867 27.757 68.32 9.72Zm15.328 13.118V47.98h-4.373V22.838h4.373Zm7.598 4.81c-.583-.437-1.112-.747-1.585-.93-.474-.218-1.075-.327-1.804-.327-1.093 0-1.95.273-2.57.82-.619.546-1.056 1.293-1.311 2.24-.219.948-.328 2.023-.328 3.226h-1.968c0-2.005.346-3.772 1.039-5.302.728-1.567 1.658-2.806 2.787-3.717 1.13-.911 2.278-1.367 3.444-1.367.911 0 1.75.128 2.514.383.802.218 1.53.674 2.187 1.366l-2.405 3.608Zm6.765-15.195c0-.839.292-1.55.875-2.132.62-.583 1.33-.875 2.131-.875.839 0 1.549.292 2.132.875.583.583.875 1.293.875 2.132 0 .801-.292 1.512-.875 2.131-.583.583-1.293.875-2.132.875-.801 0-1.512-.292-2.131-.875-.583-.62-.875-1.33-.875-2.131Zm.82 10.385h4.373V47.98H98.83V22.838Zm14.417 17.436a14.01 14.01 0 0 0 1.75 2.132 8.061 8.061 0 0 0 2.241 1.585 7.313 7.313 0 0 0 2.842.547c1.239 0 2.205-.273 2.897-.82.729-.583 1.093-1.367 1.093-2.35 0-.875-.291-1.604-.874-2.187-.547-.62-1.258-1.13-2.132-1.53a27.92 27.92 0 0 0-2.788-1.203 38.357 38.357 0 0 1-3.334-1.53 9.676 9.676 0 0 1-2.788-2.35c-.729-.985-1.093-2.205-1.093-3.663 0-1.494.383-2.733 1.148-3.717.802-.984 1.822-1.712 3.061-2.186a11.213 11.213 0 0 1 3.935-.71c1.349 0 2.606.218 3.772.655 1.202.438 2.259 1.02 3.17 1.75.911.728 1.622 1.566 2.132 2.514l-3.498 2.24a8.582 8.582 0 0 0-2.624-2.35c-1.02-.62-2.186-.929-3.498-.929-.911 0-1.695.2-2.351.601-.656.401-.983 1.02-.983 1.859 0 .656.255 1.239.765 1.749s1.166.966 1.968 1.366c.801.401 1.639.784 2.514 1.148a31.253 31.253 0 0 1 3.99 1.913c1.203.656 2.15 1.458 2.842 2.405.729.948 1.094 2.169 1.094 3.663 0 2.186-.802 4.008-2.405 5.466-1.567 1.457-3.644 2.186-6.232 2.186-1.676 0-3.188-.291-4.536-.874-1.349-.62-2.497-1.404-3.444-2.35-.911-.948-1.603-1.914-2.077-2.898l3.443-2.132Zm17.181-17.436H143v4.1h-12.572v-4.1Zm4.1-8.746h4.372v33.89h-4.372v-33.89Z"/>
  </g>
  <defs>
    <clipPath id="a">
      <path fill="#fff" d="M0 0h143v58.103H0z"/>
    </clipPath>
  </defs>
</svg>