<svg  viewBox="0 0 24 24"><path d="M16.135 2.001l.507.005.44.012c.888.034 1.371.13 1.883.375a4 4 0 0 1 1.726 1.588c.236.404.372.812.471 1.428h0l.056.396.026.22h0l.049.489.769 9.206.08 1.014.038.613.015.349.005.308-.004.273-.006.125h0l-.02.232-.03.212-.042.197-.084.282h0l-.072.187-.041.095a4 4 0 0 1-1.759 1.912h0l-.182.093-.18.081-.184.069h0l-.193.058-.32.068h0l-.242.035-.132.014h0l-.289.023-.328.017-.372.012-.653.009L7.716 22l-.785-.002-.653-.009-.541-.02-.308-.02-.272-.027-.125-.016h0l-.23-.039a3.06 3.06 0 0 1-.585-.175h0l-.18-.081-.182-.093a4 4 0 0 1-1.759-1.912l-.041-.095h0l-.072-.187-.059-.187-.047-.192h0l-.036-.204-.033-.34h0l-.009-.258h0l-.001-.141.005-.308.015-.349.024-.396.051-.693.766-9.206.084-.908.062-.532.044-.297.048-.259.026-.118h0l.057-.216c.061-.205.134-.381.228-.559h0l.1-.18a4 4 0 0 1 1.726-1.588c.512-.245.995-.341 1.883-.375h0l.44-.012.507-.005h8.271zm.218 2.001H7.648l-.392.006-.329.011-.274.016-.226.023-.098.014h0l-.17.033c-.103.025-.187.055-.263.091a2 2 0 0 0-.863.794h0l-.049.092-.044.102-.02.057h0l-.038.128-.035.152-.049.285-.063.518-.05.516-.776 9.293-.075 1.016-.024.456-.007.25v.213l.007.181.014.154.021.132.028.115.035.103.02.049a2 2 0 0 0 .88.956h0l.096.047.106.041.058.018h0l.13.032.073.014h0l.166.024.196.02.361.022.456.014.786.009 9.047.001.901-.004.366-.006.456-.014.361-.022.196-.02.166-.024.141-.029h0l.121-.035.106-.041.096-.047a2 2 0 0 0 .88-.956l.02-.049h0l.035-.103.028-.115.021-.132.014-.154.007-.181v-.213l-.007-.25-.014-.292-.05-.731-.756-9.096-.088-1-.04-.369-.041-.306-.043-.251a1.79 1.79 0 0 0-.192-.569 2 2 0 0 0-.863-.794c-.076-.036-.16-.066-.262-.091h0l-.169-.033-.098-.014h0l-.226-.023-.273-.016-.329-.011-.391-.006zM16 7a1 1 0 0 1 1 1 5 5 0 0 1-5 5 5 5 0 0 1-5-5 1 1 0 1 1 2 0 3 3 0 0 0 3 3 3 3 0 0 0 3-3 1 1 0 0 1 1-1z"></path></svg>